<?xml version="1.0" encoding="UTF-8"?><svg id="a" xmlns="http://www.w3.org/2000/svg" viewBox="0 0 100 100"><path d="M27.134,100H4.268c-2.357,0-4.268-1.91-4.268-4.268s1.911-4.268,4.268-4.268h18.598v-18.598c0-2.357,1.911-4.268,4.268-4.268h18.598v-18.598c0-2.357,1.911-4.268,4.268-4.268h18.598v-18.599c0-2.357,1.911-4.268,4.268-4.268h22.866c2.357,0,4.268,1.91,4.268,4.268s-1.911,4.268-4.268,4.268h-18.598v18.599c0,2.357-1.911,4.268-4.268,4.268h-18.598v18.598c0,2.357-1.911,4.268-4.268,4.268h-18.598v18.598c0,2.357-1.911,4.268-4.268,4.268Z" style="fill:#fff;"/><path d="M54.297,4.255c0-.276-.029-.551-.083-.823-.026-.129-.074-.249-.111-.374-.042-.142-.074-.286-.131-.423-.06-.145-.142-.277-.217-.413-.059-.107-.106-.219-.175-.322-.313-.468-.715-.87-1.182-1.183-.107-.072-.224-.121-.336-.182-.132-.072-.259-.152-.399-.21-.143-.059-.291-.093-.438-.136-.12-.035-.234-.082-.359-.106-.276-.055-.556-.084-.836-.084h-22.881c-2.357,0-4.268,1.91-4.268,4.268s1.911,4.268,4.268,4.268h12.578L1.25,47.013c-1.666,1.667-1.666,4.369,0,6.036.833.833,1.925,1.25,3.018,1.25s2.184-.417,3.018-1.25L45.763,14.572v12.578c0,2.357,1.911,4.268,4.268,4.268s4.268-1.91,4.268-4.268V4.268s-.001-.008-.001-.013Z" style="fill:#fff;"/></svg>