<?xml version="1.0" encoding="UTF-8"?><svg id="a" xmlns="http://www.w3.org/2000/svg" viewBox="0 0 100 100"><path d="M53.489,25.105L64.711,1.291c-4.813-.855-9.722-1.291-14.711-1.291C31.809,0,14.522,5.759.01,16.654l15.009,19.992c10.15-7.619,22.246-11.646,34.981-11.646,1.17,0,2.332.038,3.489.105Z" style="fill:#fff;"/><path d="M69.78,2.263c11.304,3.093,21.455,7.698,30.153,14.21l-34.857,73.966c-2.842,6.03-8.835,9.566-15.087,9.566-2.38,0-4.797-.512-7.094-1.594h0c-8.326-3.924-11.895-13.855-7.972-22.181L69.78,2.263" style="fill:#fff;"/></svg>