<?xml version="1.0" encoding="UTF-8"?><svg id="a" xmlns="http://www.w3.org/2000/svg" viewBox="0 0 500 160"><path d="M79.784,0C35.72,0,0,35.717,0,79.785s35.72,79.782,79.784,79.782,79.784-35.723,79.784-79.782S123.847,0,79.784,0M64.41,81.276l-.028-.168v.168l-15.927-15.926h-19.552l-2.658-2.661,12.955-16.284,3.868,3.869h7.888v-7.888s-3.619-3.617-3.619-3.617l14.413-11.582,2.659,2.657v51.432ZM79.631,96.494l-8.361-8.362v-38.61l8.361,8.363v38.609ZM94.85,111.717l-8.361-8.364v-38.608l8.361,8.359v38.613ZM110.071,126.94l-8.361-8.364v-38.612l8.361,8.366v38.611ZM125.291,128.082h-8.361v-32.897l8.361,8.362v24.534Z" style="fill:#fff;"/><polygon points="203.091 33.808 214.519 33.808 217.635 52.556 218.296 58.46 219.004 58.46 220.044 52.556 224.435 33.808 234.873 33.808 239.264 52.556 240.303 58.46 240.964 58.46 241.672 52.556 244.79 33.808 256.123 33.808 247.953 68.754 234.022 68.754 230.906 55.437 229.867 46.511 229.346 46.511 228.308 55.437 225.191 68.754 211.26 68.754 203.091 33.808" style="fill:#fff;"/><path d="M256.519,68.234l10.767-34.426h15.774l10.768,34.426v.519h-10.248l-2.126-7.13h-12.61l-2.078,7.13h-10.247v-.519ZM279.139,53.548l-1.463-5.195-2.078-7.32h-.851l-2.125,7.413-1.416,5.101h7.933Z" style="fill:#fff;"/><path d="M313.854,57.939c-.471.064-.952.096-1.441.096h-3.046v10.72h-10.625v-34.71c4.061-.472,7.919-.708,11.57-.708,3.4,0,6.33.236,8.785.708,2.454.472,4.47,1.204,6.045,2.196,1.573.992,2.729,2.275,3.47,3.849.74,1.574,1.109,3.447,1.109,5.62,0,4.881-2.203,8.311-6.611,10.294l8.406,12.751h-11.9l-5.761-10.816ZM312.39,50.006c1.258,0,2.314-.07,3.163-.212.849-.141,1.518-.379,2.006-.708.489-.331.836-.771,1.039-1.323.205-.551.309-1.235.309-2.054s-.096-1.503-.286-2.054c-.187-.551-.51-.985-.966-1.299-.458-.314-1.087-.535-1.89-.661-.802-.125-1.817-.189-3.046-.189-.441,0-.999.016-1.677.048-.677.031-1.234.079-1.677.141v8.076c.347.094.74.157,1.182.189.44.032,1.055.047,1.842.047" style="fill:#fff;"/><path d="M349.649,69.32c-1.007,0-2.086-.032-3.236-.094-1.148-.064-2.33-.165-3.541-.308-1.212-.141-2.417-.298-3.612-.471-1.197-.172-2.33-.385-3.4-.638v-8.5c2.549.567,4.863.999,6.942,1.299,2.077.3,4.014.449,5.807.449,1.889,0,3.22-.173,3.991-.519.77-.347,1.157-.929,1.157-1.747,0-.913-.434-1.584-1.299-2.008-.865-.424-2.229-.763-4.084-1.014-1.985-.285-3.739-.701-5.265-1.252-1.529-.551-2.81-1.29-3.849-2.219-1.038-.928-1.817-2.062-2.338-3.401-.519-1.337-.779-2.935-.779-4.792,0-3.4,1.313-6.045,3.942-7.934,2.63-1.89,6.304-2.834,11.028-2.834.817,0,1.629.023,2.432.07.803.048,1.669.127,2.598.237.927.11,1.936.252,3.021.426,1.088.172,2.323.401,3.707.685v8.405c-.819-.252-1.684-.472-2.596-.661-.914-.189-1.836-.354-2.762-.495-.931-.143-1.844-.252-2.74-.331-.897-.079-1.723-.118-2.478-.118-3.372,0-5.054.771-5.054,2.313,0,1.008.472,1.779,1.416,2.314.944.536,2.456.977,4.535,1.323,1.983.346,3.699.794,5.148,1.345,1.446.552,2.65,1.236,3.612,2.054.958.819,1.676,1.804,2.147,2.952.472,1.149.707,2.495.707,4.038,0,7.62-5.052,11.428-15.157,11.428" style="fill:#fff;"/><polygon points="369.565 60.961 385.667 42.45 385.667 41.977 370.272 41.977 370.272 33.808 398.512 33.808 398.512 41.411 382.362 60.111 382.362 60.584 399.457 60.584 399.457 68.753 369.565 68.753 369.565 60.961" style="fill:#fff;"/><polygon points="413.175 41.978 403.684 41.978 403.684 33.808 433.293 33.808 433.293 41.978 423.8 41.978 423.8 68.754 413.175 68.754 413.175 41.978" style="fill:#fff;"/><path d="M433.187,68.234l10.767-34.426h15.774l10.767,34.426v.519h-10.246l-2.127-7.13h-12.61l-2.078,7.13h-10.247v-.519ZM455.808,53.548l-1.463-5.195-2.08-7.32h-.85l-2.125,7.413-1.416,5.101h7.934Z" style="fill:#fff;"/><polygon points="479.882 41.978 470.39 41.978 470.39 33.808 500 33.808 500 41.978 490.507 41.978 490.507 68.754 479.882 68.754 479.882 41.978" style="fill:#fff;"/><polygon points="205.688 90.477 220.186 90.477 225.38 104.692 227.175 111.727 227.458 111.727 229.299 104.692 234.494 90.477 248.945 90.477 248.945 125.421 239.595 125.421 239.595 101.953 239.17 101.953 236.289 111.398 231.519 124.006 223.115 124.006 218.344 111.398 215.463 101.953 215.039 101.953 215.039 125.421 205.688 125.421 205.688 90.477" style="fill:#fff;"/><rect x="256.783" y="90.478" width="10.627" height="34.944" style="fill:#fff;"/><polygon points="275.248 90.477 302.638 90.477 302.638 98.599 285.873 98.599 285.873 103.889 300.843 103.889 300.843 112.011 285.873 112.011 285.873 117.254 303.109 117.254 303.109 125.421 275.248 125.421 275.248 90.477" style="fill:#fff;"/><path d="M306.286,132.837c.694-1.575,1.267-3.04,1.726-4.393.456-1.353.819-2.687,1.087-3.99.266-1.305.456-2.645.566-4.015.109-1.367.165-2.871.165-4.51v-25.452h10.673v26.305c0,1.667-.125,3.25-.378,4.745-.253,1.495-.679,2.984-1.276,4.462-.599,1.479-1.37,3.015-2.313,4.606-.945,1.586-2.11,3.31-3.496,5.167l-6.754-2.926Z" style="fill:#fff;"/><path d="M340.978,125.989c-1.008,0-2.087-.032-3.236-.094-1.149-.063-2.33-.165-3.541-.309-1.212-.139-2.417-.299-3.613-.469-1.196-.173-2.33-.387-3.4-.638v-8.501c2.55.566,4.864.999,6.942,1.298,2.079.301,4.014.448,5.807.448,1.89,0,3.22-.173,3.992-.519.77-.345,1.157-.928,1.157-1.746,0-.913-.434-1.583-1.299-2.009-.865-.422-2.228-.759-4.085-1.012-1.983-.284-3.738-.702-5.265-1.252-1.528-.552-2.808-1.291-3.849-2.22-1.038-.929-1.817-2.06-2.338-3.4-.518-1.339-.778-2.936-.778-4.793,0-3.4,1.314-6.045,3.942-7.932,2.63-1.892,6.305-2.835,11.029-2.835.816,0,1.628.022,2.431.07.802.048,1.668.125,2.597.237.927.11,1.938.251,3.022.424,1.087.173,2.324.403,3.707.684v8.408c-.819-.253-1.684-.474-2.596-.663-.914-.188-1.836-.353-2.763-.494-.929-.144-1.842-.252-2.739-.332-.897-.078-1.724-.117-2.479-.117-3.371,0-5.052.771-5.052,2.314,0,1.006.47,1.778,1.416,2.313.943.535,2.456.975,4.534,1.321,1.982.347,3.698.795,5.147,1.345,1.447.553,2.651,1.238,3.612,2.055.959.819,1.677,1.802,2.148,2.952.471,1.148.707,2.495.707,4.038,0,7.62-5.051,11.428-15.157,11.428" style="fill:#fff;"/><polygon points="362.286 90.477 372.911 90.477 372.911 103.793 376.831 103.793 383.631 90.477 395.39 90.477 386.653 105.682 383.915 106.957 383.915 107.382 386.749 108.705 396.24 125.421 384.481 125.421 377.443 111.919 372.911 111.919 372.911 125.421 362.286 125.421 362.286 90.477" style="fill:#fff;"/><rect x="401.016" y="90.478" width="10.625" height="34.944" style="fill:#fff;"/></svg>